<?xml version="1.0" encoding="utf-8"?>
<!-- Generator: Adobe Illustrator 16.0.0, SVG Export Plug-In . SVG Version: 6.00 Build 0)  -->
<!DOCTYPE svg PUBLIC "-//W3C//DTD SVG 1.1//EN" "http://www.w3.org/Graphics/SVG/1.1/DTD/svg11.dtd">
<svg version="1.1" id="레이어_1" xmlns="http://www.w3.org/2000/svg" xmlns:xlink="http://www.w3.org/1999/xlink" x="0px"
	 y="0px" width="211.942px" height="55.396px" viewBox="0 0 211.942 55.396" enable-background="new 0 0 211.942 55.396"
	 xml:space="preserve">
<g>
	<path id="XMLID_281_" fill="#D1904A" d="M28.576,0.023V0h-0.881C12.424,0,0,12.424,0,27.699c0,14.975,11.947,27.206,26.814,27.675
		v0.021h0.881c15.273,0,27.696-12.427,27.696-27.696C55.392,12.719,43.441,0.492,28.576,0.023z M26.814,1.785v16.094v17.855
		c-8.965-0.461-16.117-7.898-16.117-16.975C10.697,9.682,17.85,2.242,26.814,1.785z M28.576,53.612V37.518V19.662
		c8.966,0.461,16.116,7.896,16.116,16.973C44.692,45.713,37.542,53.151,28.576,53.612z M1.757,27.699
		c0-9.551,5.192-17.906,12.899-22.408c-3.522,3.412-5.721,8.188-5.721,13.469c0,10.047,7.942,18.273,17.879,18.736v16.116
		C12.922,53.146,1.757,41.703,1.757,27.699z M40.734,50.103c3.523-3.412,5.719-8.185,5.719-13.468
		c0-10.047-7.941-18.273-17.877-18.734V1.785C42.469,2.25,53.631,13.691,53.631,27.699C53.631,37.246,48.44,45.6,40.734,50.103z"/>
	<g id="XMLID_139_">
		<path id="XMLID_279_" fill="#D1904A" d="M75.143,21.287c-0.318,0.344-0.721,0.633-1.211,0.867
			c-0.494,0.24-1.011,0.383-1.559,0.434c-0.291,0.018-0.615,0.018-0.973,0c-0.358-0.029-0.709-0.066-1.039-0.121
			c-0.337-0.055-0.642-0.115-0.912-0.184c-0.276-0.066-0.47-0.133-0.59-0.189c-0.187-0.086-0.293-0.15-0.332-0.193
			c-0.036-0.041-0.041-0.129-0.018-0.266l0.129-1.344c0.012-0.1,0.043-0.162,0.091-0.186s0.14-0.004,0.272,0.055
			c0.147,0.063,0.354,0.133,0.618,0.211c0.268,0.08,0.569,0.148,0.894,0.201c0.328,0.055,0.662,0.086,0.996,0.1
			c0.332,0.014,0.633-0.014,0.9-0.072c0.35-0.088,0.64-0.199,0.855-0.338c0.221-0.139,0.394-0.305,0.523-0.49
			c0.124-0.189,0.213-0.395,0.261-0.623c0.05-0.225,0.074-0.457,0.074-0.701c0-0.229-0.149-0.547-0.448-0.945
			c-0.299-0.4-0.729-0.768-1.283-1.094c-0.683-0.4-1.27-0.773-1.769-1.121c-0.499-0.346-0.907-0.688-1.229-1.029
			c-0.32-0.34-0.563-0.693-0.723-1.057c-0.156-0.363-0.235-0.766-0.235-1.205c0-0.494,0.107-0.973,0.319-1.428
			c0.212-0.457,0.505-0.854,0.874-1.195c0.371-0.34,0.813-0.609,1.332-0.809c0.516-0.201,1.082-0.301,1.699-0.301
			c0.635,0,1.153,0.039,1.564,0.121c0.406,0.072,0.752,0.168,1.045,0.277c0.135,0.053,0.215,0.102,0.245,0.156
			c0.028,0.055,0.034,0.125,0.01,0.209l-0.236,1.168c-0.023,0.133-0.063,0.223-0.118,0.273c-0.057,0.045-0.148,0.045-0.284,0
			c-0.182-0.061-0.386-0.119-0.601-0.176c-0.219-0.055-0.443-0.098-0.674-0.135c-0.231-0.035-0.452-0.059-0.668-0.074
			c-0.209-0.012-0.402-0.006-0.572,0.018c-0.68,0.111-1.153,0.332-1.429,0.668c-0.274,0.332-0.411,0.754-0.411,1.264
			c0,0.305,0.156,0.641,0.475,1.012c0.314,0.369,0.777,0.74,1.385,1.104c0.764,0.459,1.396,0.875,1.889,1.238
			c0.49,0.365,0.879,0.715,1.163,1.049c0.288,0.334,0.486,0.668,0.601,1.01c0.115,0.344,0.174,0.713,0.174,1.111
			C76.219,19.627,75.86,20.537,75.143,21.287z"/>
		<path id="XMLID_275_" fill="#D1904A" d="M88.072,22.273c-0.146,0-0.221-0.059-0.221-0.18V8.789c0-0.17,0.074-0.254,0.221-0.254
			h3.152c1.388,0,2.464,0.285,3.234,0.855c0.771,0.572,1.158,1.447,1.158,2.625c0,0.729-0.152,1.354-0.447,1.869
			c-0.297,0.516-0.72,0.92-1.266,1.211c0.353,0.133,0.658,0.313,0.922,0.529c0.26,0.217,0.477,0.465,0.654,0.746
			c0.178,0.277,0.309,0.572,0.393,0.883c0.083,0.309,0.126,0.617,0.126,0.922c0,1.371-0.45,2.4-1.349,3.082
			c-0.896,0.676-2.197,1.016-3.898,1.016H88.072z M89.896,16.135v4.191h0.894c1.164,0,1.982-0.186,2.448-0.555
			c0.468-0.373,0.702-0.879,0.702-1.523c0-0.654-0.255-1.172-0.766-1.549c-0.51-0.377-1.373-0.564-2.59-0.564H89.896z
			 M89.932,10.469v3.695h0.984c0.957,0,1.64-0.184,2.039-0.553c0.404-0.371,0.602-0.848,0.602-1.43c0-0.512-0.174-0.928-0.529-1.24
			c-0.348-0.318-0.951-0.473-1.803-0.473H89.932z"/>
		<path id="XMLID_272_" fill="#D1904A" d="M110.733,20.545c-0.549,0.691-1.207,1.205-1.977,1.537
			c-0.775,0.336-1.641,0.506-2.599,0.506c-1.069,0-1.989-0.193-2.76-0.576c-0.772-0.385-1.405-0.902-1.895-1.559
			c-0.493-0.658-0.856-1.418-1.095-2.285c-0.234-0.871-0.353-1.791-0.353-2.76c0-0.949,0.118-1.857,0.362-2.727
			c0.246-0.869,0.613-1.633,1.114-2.287c0.495-0.654,1.127-1.178,1.896-1.568c0.764-0.387,1.674-0.582,2.729-0.582
			c1.033,0,1.935,0.199,2.699,0.594c0.768,0.393,1.4,0.916,1.904,1.574s0.877,1.416,1.127,2.279c0.25,0.861,0.371,1.768,0.357,2.717
			c-0.012,1.066-0.141,2.027-0.383,2.885C111.618,19.148,111.243,19.9,110.733,20.545z M106.157,10.195
			c-0.7,0-1.31,0.154-1.812,0.465c-0.506,0.305-0.916,0.707-1.24,1.203c-0.321,0.49-0.558,1.049-0.711,1.674
			c-0.151,0.627-0.227,1.248-0.227,1.871c0,0.615,0.075,1.24,0.227,1.865c0.153,0.625,0.39,1.188,0.711,1.686
			c0.324,0.498,0.734,0.9,1.24,1.213c0.502,0.307,1.111,0.463,1.812,0.463c0.706,0,1.31-0.156,1.814-0.463
			c0.504-0.313,0.914-0.715,1.23-1.213s0.551-1.061,0.699-1.686c0.154-0.625,0.23-1.25,0.23-1.865c0-0.611-0.074-1.225-0.217-1.844
			c-0.148-0.619-0.383-1.18-0.703-1.678c-0.322-0.496-0.736-0.904-1.24-1.217C107.467,10.352,106.863,10.195,106.157,10.195z"/>
		<path id="XMLID_269_" fill="#D1904A" d="M125.866,20.707c-0.328,0.27-0.697,0.498-1.113,0.693
			c-0.412,0.193-0.854,0.354-1.33,0.484c-0.473,0.127-0.965,0.221-1.477,0.289c-0.508,0.066-1.014,0.1-1.51,0.1h-2.225
			c-0.205,0-0.33-0.023-0.373-0.072c-0.041-0.051-0.063-0.164-0.063-0.346V9.01c0-0.232,0.021-0.367,0.063-0.408
			c0.043-0.045,0.182-0.066,0.412-0.066h3.098c2.369,0,4.127,0.67,5.283,2.004c0.51,0.586,0.887,1.26,1.137,2.031
			c0.25,0.773,0.375,1.705,0.375,2.797c0,1.133-0.195,2.158-0.592,3.08C127.155,19.373,126.596,20.125,125.866,20.707z
			 M125.063,11.91c-0.777-0.965-2.027-1.441-3.754-1.441h-1.422v9.857h0.822c0.703,0,1.367-0.088,1.984-0.268
			c0.619-0.172,1.168-0.457,1.641-0.846c0.547-0.412,0.969-0.941,1.266-1.594c0.297-0.65,0.447-1.424,0.447-2.324
			c0-0.727-0.078-1.375-0.234-1.938C125.653,12.791,125.405,12.307,125.063,11.91z"/>
		<path id="XMLID_267_" fill="#D1904A" d="M139.432,22.057c0,0.145-0.072,0.217-0.221,0.217h-1.619
			c-0.146,0-0.221-0.072-0.221-0.217v-5.502l-4.809-7.783c-0.084-0.158-0.031-0.236,0.166-0.236h1.838
			c0.121,0,0.203,0.037,0.24,0.113l3.605,5.854l3.625-5.854c0.037-0.076,0.117-0.113,0.238-0.113h1.84
			c0.193,0,0.246,0.078,0.164,0.236l-4.848,7.799V22.057z"/>
		<path id="XMLID_265_" fill="#D1904A" d="M161.909,22.246c-0.035,0.021-0.104,0.027-0.199,0.027h-1.73
			c-0.098,0-0.164-0.006-0.203-0.027c-0.033-0.016-0.066-0.074-0.088-0.17l-3.029-10.355l-3.021,10.355
			c-0.023,0.096-0.051,0.154-0.084,0.17c-0.033,0.021-0.098,0.027-0.207,0.027h-1.73c-0.098,0-0.168-0.006-0.201-0.027
			c-0.035-0.016-0.068-0.074-0.09-0.17l-3.844-13.287c-0.027-0.084-0.027-0.146,0-0.188c0.02-0.045,0.115-0.066,0.27-0.066h1.516
			c0.082,0,0.143,0.01,0.178,0.029c0.041,0.016,0.068,0.066,0.092,0.154l3.025,10.279l2.953-10.279
			c0.023-0.088,0.057-0.139,0.1-0.154c0.041-0.02,0.107-0.029,0.191-0.029h1.715c0.082,0,0.146,0.01,0.191,0.029
			c0.041,0.016,0.076,0.066,0.098,0.154l2.957,10.266l3.021-10.266c0.021-0.088,0.053-0.139,0.09-0.154
			c0.037-0.02,0.094-0.029,0.182-0.029h1.514c0.154,0,0.252,0.021,0.273,0.066c0.021,0.041,0.021,0.104,0,0.188L162,22.076
			C161.975,22.172,161.946,22.23,161.909,22.246z"/>
		<path id="XMLID_262_" fill="#D1904A" d="M180.688,20.545c-0.547,0.691-1.207,1.205-1.977,1.537
			c-0.773,0.336-1.641,0.506-2.596,0.506c-1.072,0-1.99-0.193-2.762-0.576c-0.773-0.385-1.404-0.902-1.898-1.559
			c-0.488-0.658-0.854-1.418-1.092-2.285c-0.236-0.871-0.354-1.791-0.354-2.76c0-0.949,0.119-1.857,0.363-2.727
			c0.242-0.869,0.613-1.633,1.113-2.287c0.494-0.654,1.129-1.178,1.895-1.568c0.764-0.387,1.676-0.582,2.734-0.582
			c1.031,0,1.928,0.199,2.695,0.594c0.764,0.393,1.396,0.916,1.906,1.574c0.502,0.658,0.879,1.416,1.129,2.279
			c0.248,0.861,0.365,1.768,0.354,2.717c-0.014,1.066-0.141,2.027-0.383,2.885C181.577,19.148,181.196,19.9,180.688,20.545z
			 M176.116,10.195c-0.705,0-1.313,0.154-1.814,0.465c-0.506,0.305-0.916,0.707-1.238,1.203c-0.326,0.49-0.561,1.049-0.713,1.674
			c-0.152,0.627-0.227,1.248-0.227,1.871c0,0.615,0.074,1.24,0.227,1.865s0.387,1.188,0.713,1.686
			c0.322,0.498,0.732,0.9,1.238,1.213c0.502,0.307,1.109,0.463,1.814,0.463c0.701,0,1.307-0.156,1.809-0.463
			c0.508-0.313,0.918-0.715,1.23-1.213c0.316-0.498,0.551-1.061,0.701-1.686c0.154-0.625,0.23-1.25,0.23-1.865
			c0-0.611-0.076-1.225-0.217-1.844c-0.148-0.619-0.379-1.18-0.701-1.678c-0.324-0.496-0.736-0.904-1.244-1.217
			C177.422,10.352,176.817,10.195,176.116,10.195z"/>
		<path id="XMLID_259_" fill="#D1904A" d="M195.237,22.273c-0.133,0-0.227-0.006-0.281-0.027c-0.055-0.016-0.111-0.068-0.172-0.152
			l-2.789-5.395h-2.08v5.338c0,0.158-0.074,0.236-0.236,0.236h-1.619c-0.148,0-0.217-0.078-0.217-0.236V8.754
			c0-0.061,0.018-0.111,0.061-0.152c0.043-0.045,0.094-0.066,0.156-0.066h3.682c1.348,0,2.416,0.328,3.205,0.986
			c0.791,0.652,1.184,1.676,1.184,3.059c0,0.889-0.191,1.639-0.582,2.252s-0.928,1.078-1.602,1.393l3.041,5.799
			c0.096,0.168,0.023,0.25-0.219,0.25H195.237z M189.915,10.451v4.354h1.498c0.801,0,1.436-0.172,1.91-0.521
			c0.477-0.344,0.715-0.918,0.715-1.723c0-0.689-0.186-1.215-0.557-1.574c-0.375-0.357-0.865-0.535-1.486-0.535H189.915z"/>
		<path id="XMLID_257_" fill="#D1904A" d="M209.897,22.258c-0.133,0-0.23-0.018-0.283-0.049c-0.053-0.029-0.115-0.092-0.188-0.189
			l-3.939-5.828l-1.201,1.502v4.363c0,0.145-0.074,0.217-0.221,0.217h-1.619c-0.059,0-0.113-0.02-0.156-0.064
			c-0.043-0.039-0.063-0.092-0.063-0.152V8.754c0-0.061,0.02-0.111,0.063-0.152c0.043-0.045,0.098-0.066,0.156-0.066h1.619
			c0.063,0,0.113,0.021,0.158,0.066c0.041,0.041,0.063,0.092,0.063,0.152v5.807l4.684-5.771c0.084-0.119,0.174-0.182,0.273-0.182
			h1.984c0.133,0,0.207,0.021,0.219,0.055c0.012,0.039-0.014,0.104-0.09,0.201l-4.537,5.713l5.064,7.447
			c0.113,0.154,0.063,0.234-0.145,0.234H209.897z"/>
		<path id="XMLID_254_" fill="#D1904A" d="M70.518,41.246v5.341c0,0.156-0.076,0.234-0.236,0.234h-1.622
			c-0.147,0-0.222-0.078-0.222-0.234V33.303c0-0.063,0.021-0.115,0.069-0.156c0.039-0.043,0.093-0.064,0.152-0.064h3.68
			c1.349,0,2.413,0.328,3.201,0.986c0.781,0.652,1.173,1.674,1.173,3.057c0,0.67-0.112,1.262-0.336,1.779
			c-0.227,0.516-0.539,0.947-0.947,1.295c-0.408,0.346-0.89,0.609-1.441,0.785c-0.551,0.174-1.158,0.262-1.813,0.262H70.518z
			 M70.518,34.998v4.354h1.477c0.816,0,1.458-0.174,1.932-0.521c0.474-0.346,0.71-0.922,0.71-1.721c0-0.691-0.188-1.217-0.567-1.576
			c-0.375-0.359-0.866-0.535-1.471-0.535H70.518z"/>
		<path id="XMLID_252_" fill="#D1904A" d="M83.266,46.821h-1.662c-0.156,0-0.232-0.078-0.232-0.234V33.318
			c0-0.156,0.076-0.236,0.232-0.236h1.662c0.154,0,0.235,0.08,0.235,0.236v13.269C83.501,46.743,83.42,46.821,83.266,46.821z"/>
		<path id="XMLID_250_" fill="#D1904A" d="M89.176,46.821c-0.059,0-0.111-0.021-0.154-0.063c-0.041-0.043-0.062-0.096-0.062-0.154
			V33.303c0-0.063,0.021-0.115,0.062-0.156c0.043-0.043,0.096-0.064,0.154-0.064h1.64c0.067,0,0.113,0.021,0.159,0.064
			c0.041,0.041,0.06,0.094,0.06,0.156v11.604h4.72c0.147,0,0.216,0.08,0.216,0.236v1.462c0,0.059-0.015,0.111-0.062,0.154
			c-0.041,0.041-0.093,0.063-0.154,0.063H89.176z"/>
		<path id="XMLID_247_" fill="#D1904A" d="M110.288,46.821c-0.084,0-0.146-0.008-0.182-0.025c-0.037-0.018-0.074-0.07-0.107-0.156
			l-1.309-3.282h-5.947l-1.309,3.282c-0.028,0.086-0.056,0.139-0.095,0.156c-0.035,0.018-0.098,0.025-0.184,0.025h-1.675
			c-0.22,0-0.291-0.084-0.22-0.254l5.32-13.282c0.039-0.1,0.064-0.158,0.084-0.176s0.088-0.027,0.208-0.027h1.696
			c0.109,0,0.174,0.01,0.198,0.027c0.028,0.018,0.057,0.076,0.093,0.176l5.321,13.282c0.061,0.17-0.012,0.254-0.219,0.254H110.288z
			 M103.493,41.447h4.427l-2.208-5.621L103.493,41.447z"/>
		<path id="XMLID_245_" fill="#D1904A" d="M120.229,34.998v11.606c0,0.143-0.074,0.217-0.221,0.217h-1.617
			c-0.148,0-0.223-0.074-0.223-0.217V34.998h-3.533c-0.064,0-0.113-0.021-0.154-0.066c-0.045-0.045-0.068-0.1-0.068-0.174v-1.455
			c0-0.063,0.023-0.115,0.068-0.156c0.041-0.043,0.09-0.064,0.154-0.064h9.146c0.063,0,0.111,0.021,0.156,0.064
			c0.039,0.041,0.061,0.094,0.061,0.156v1.455c0,0.158-0.072,0.24-0.217,0.24H120.229z"/>
		<path id="XMLID_243_" fill="#D1904A" d="M129.221,46.843c-0.24,0-0.389-0.025-0.438-0.064c-0.049-0.043-0.07-0.199-0.07-0.467
			V33.574c0-0.242,0.02-0.387,0.061-0.428c0.041-0.043,0.176-0.064,0.408-0.064h6.471c0.135,0,0.213,0.021,0.238,0.064
			c0.025,0.041,0.037,0.119,0.037,0.229v1.346c0,0.119-0.021,0.207-0.057,0.248s-0.107,0.064-0.219,0.064h-4.939v3.717h4.705
			c0.182,0,0.271,0.096,0.271,0.291v1.367c0,0.207-0.09,0.309-0.271,0.309h-4.705v4.156h5.158c0.168,0,0.256,0.102,0.256,0.309
			v1.366c0,0.195-0.088,0.295-0.256,0.295H129.221z"/>
		<path id="XMLID_241_" fill="#D1904A" d="M148.239,45.839c-0.316,0.34-0.725,0.629-1.217,0.867c-0.49,0.236-1.008,0.377-1.557,0.43
			c-0.289,0.021-0.615,0.021-0.971,0c-0.361-0.025-0.707-0.066-1.043-0.123c-0.332-0.053-0.637-0.115-0.908-0.182
			c-0.273-0.066-0.471-0.129-0.592-0.191c-0.186-0.082-0.295-0.148-0.332-0.189c-0.035-0.043-0.039-0.133-0.018-0.266l0.129-1.349
			c0.012-0.098,0.043-0.156,0.094-0.182c0.045-0.027,0.139-0.008,0.271,0.057c0.146,0.057,0.348,0.127,0.619,0.207
			c0.27,0.08,0.564,0.146,0.895,0.201c0.326,0.053,0.656,0.086,0.992,0.098c0.332,0.016,0.633-0.012,0.898-0.074
			c0.354-0.084,0.643-0.195,0.857-0.334c0.223-0.143,0.393-0.303,0.523-0.49c0.131-0.191,0.215-0.398,0.264-0.623
			c0.047-0.225,0.072-0.459,0.072-0.699c0-0.232-0.152-0.547-0.447-0.949c-0.301-0.4-0.729-0.764-1.285-1.096
			c-0.682-0.398-1.27-0.771-1.77-1.119c-0.496-0.344-0.908-0.686-1.227-1.027c-0.324-0.34-0.564-0.693-0.723-1.057
			c-0.158-0.365-0.236-0.766-0.236-1.203c0-0.498,0.109-0.977,0.32-1.43c0.211-0.455,0.502-0.855,0.875-1.195
			c0.371-0.34,0.813-0.607,1.33-0.811c0.518-0.201,1.082-0.299,1.705-0.299c0.631,0,1.148,0.039,1.553,0.117
			c0.41,0.078,0.758,0.172,1.051,0.283c0.133,0.047,0.213,0.102,0.246,0.152c0.031,0.057,0.031,0.127,0.008,0.211l-0.236,1.166
			c-0.021,0.135-0.066,0.225-0.119,0.277c-0.053,0.043-0.148,0.043-0.279,0c-0.184-0.063-0.385-0.123-0.604-0.178
			c-0.221-0.055-0.443-0.1-0.674-0.135c-0.232-0.035-0.451-0.063-0.666-0.072c-0.211-0.012-0.406-0.008-0.574,0.016
			c-0.678,0.109-1.156,0.332-1.428,0.666c-0.273,0.334-0.412,0.756-0.412,1.266c0,0.305,0.158,0.643,0.477,1.012
			c0.314,0.371,0.775,0.738,1.383,1.104c0.766,0.463,1.396,0.873,1.887,1.236c0.488,0.367,0.879,0.719,1.164,1.053
			c0.287,0.33,0.486,0.67,0.605,1.008c0.113,0.34,0.17,0.711,0.17,1.113C149.311,44.174,148.954,45.086,148.239,45.839z"/>
	</g>
</g>
<g>
</g>
<g>
</g>
<g>
</g>
<g>
</g>
<g>
</g>
<g>
</g>
</svg>
